# Blender v2.76 (sub 0) OBJ File: 'fin.blend'
# www.blender.org
o SketchUp_ID2
v 0.221368 0.000958 0.009382
v 0.221368 0.000958 -0.008721
v 0.224243 0.000958 0.000331
v 0.213040 0.000958 0.017082
v 0.213041 0.000958 -0.016420
v 0.199706 0.000958 0.023495
v 0.199706 0.000958 -0.022834
v 0.181812 0.000958 0.028690
v 0.181812 0.000958 -0.028029
v 0.159803 0.000958 0.032732
v 0.159803 0.000958 -0.032071
v 0.134125 0.000958 0.035688
v 0.134125 0.000958 -0.035027
v 0.105226 0.000958 0.037624
v 0.105226 0.000958 -0.036963
v 0.073549 0.000958 0.038608
v 0.073549 0.000958 -0.037947
v 0.039543 0.000958 0.038706
v 0.039543 0.000958 -0.038045
v 0.003652 0.000958 0.037983
v 0.003652 0.000958 -0.037322
v -0.033676 0.000958 0.036508
v -0.033676 0.000958 -0.035847
v -0.071997 0.000958 0.034347
v -0.071997 0.000958 -0.033686
v -0.110864 0.000958 0.031565
v -0.110864 0.000958 -0.030904
v -0.149832 0.000958 0.028230
v -0.149832 0.000958 -0.027569
v -0.188453 0.000958 0.024409
v -0.188453 0.000958 -0.023748
v -0.226282 0.000958 0.020167
v -0.226282 0.000958 -0.019506
v -0.262873 0.000958 0.015572
v -0.262873 0.000958 -0.014911
v -0.297780 0.000958 0.010690
v -0.297780 0.000958 -0.010029
v -0.330556 0.000958 0.005587
v -0.330556 0.000958 -0.004926
v -0.360757 0.000958 0.000330
v 0.087695 1.350959 -0.004543
v 0.224243 0.000958 0.000331
v 0.221368 0.000958 -0.008721
v 0.089243 1.350959 0.000331
v 0.089243 1.350959 0.000331
v 0.221368 0.000958 0.009382
v 0.224243 0.000958 0.000331
v 0.087695 1.350959 0.005204
v 0.213040 0.000958 0.017082
v 0.083211 1.350959 0.009350
v 0.199706 0.000958 0.023495
v 0.076031 1.350959 0.012804
v 0.181812 0.000958 0.028690
v 0.066395 1.350959 0.015601
v 0.159803 0.000958 0.032732
v 0.054544 1.350959 0.017777
v 0.134125 0.000958 0.035688
v 0.040718 1.350959 0.019369
v 0.105226 0.000958 0.037624
v 0.025157 1.350959 0.020412
v 0.073549 0.000958 0.038608
v 0.008100 1.350959 0.020941
v 0.039543 0.000958 0.038706
v -0.010211 1.350959 0.020994
v 0.003652 0.000958 0.037983
v -0.029537 1.350959 0.020605
v -0.033676 0.000958 0.036508
v -0.049637 1.350959 0.019811
v -0.071997 0.000958 0.034347
v -0.070271 1.350959 0.018647
v -0.110864 0.000958 0.031565
v -0.091199 1.350959 0.017149
v -0.112182 1.350959 0.015354
v -0.149832 0.000958 0.028230
v -0.132978 1.350959 0.013296
v -0.188453 0.000958 0.024409
v -0.153347 1.350959 0.011012
v -0.226282 0.000958 0.020167
v -0.173050 1.350959 0.008537
v -0.262873 0.000958 0.015572
v -0.191846 1.350959 0.005908
v -0.297780 0.000958 0.010690
v -0.209495 1.350959 0.003161
v -0.330556 0.000958 0.005587
v -0.225757 1.350959 0.000330
v -0.360757 0.000958 0.000330
v -0.225757 1.350959 0.000330
v -0.330556 0.000958 -0.004926
v -0.360757 0.000958 0.000330
v -0.209495 1.350959 -0.002500
v -0.297780 0.000958 -0.010029
v -0.191846 1.350959 -0.005248
v -0.262873 0.000958 -0.014911
v -0.173050 1.350959 -0.007876
v -0.226282 0.000958 -0.019506
v -0.153347 1.350959 -0.010351
v -0.188453 0.000958 -0.023748
v -0.132978 1.350959 -0.012635
v -0.149832 0.000958 -0.027569
v -0.112182 1.350959 -0.014693
v -0.110864 0.000958 -0.030904
v -0.091199 1.350959 -0.016488
v -0.070271 1.350959 -0.017986
v -0.071997 0.000958 -0.033686
v -0.049637 1.350959 -0.019150
v -0.033676 0.000958 -0.035847
v -0.029537 1.350959 -0.019944
v 0.003652 0.000958 -0.037322
v -0.010211 1.350959 -0.020333
v 0.039543 0.000958 -0.038045
v 0.008100 1.350959 -0.020280
v 0.073549 0.000958 -0.037947
v 0.025157 1.350959 -0.019751
v 0.105226 0.000958 -0.036963
v 0.040718 1.350959 -0.018708
v 0.134125 0.000958 -0.035027
v 0.054544 1.350959 -0.017116
v 0.159803 0.000958 -0.032071
v 0.066395 1.350959 -0.014940
v 0.181812 0.000958 -0.028029
v 0.076031 1.350959 -0.012143
v 0.199706 0.000958 -0.022834
v 0.083211 1.350959 -0.008689
v 0.213041 0.000958 -0.016420
v 0.087695 1.350959 -0.004543
v -0.225757 1.350959 0.000330
v 0.089243 1.350959 0.000331
v 0.083211 1.350959 -0.008689
v 0.076031 1.350959 -0.012143
v 0.066395 1.350959 -0.014940
v 0.054544 1.350959 -0.017116
v 0.040718 1.350959 -0.018708
v 0.025157 1.350959 -0.019751
v 0.008100 1.350959 -0.020280
v -0.010211 1.350959 -0.020333
v -0.029537 1.350959 -0.019944
v -0.049637 1.350959 -0.019150
v -0.070271 1.350959 -0.017986
v -0.091199 1.350959 -0.016488
v -0.112182 1.350959 -0.014693
v -0.132978 1.350959 -0.012635
v -0.153347 1.350959 -0.010351
v -0.173050 1.350959 -0.007876
v -0.191846 1.350959 -0.005248
v -0.209495 1.350959 -0.002500
v -0.225757 1.350959 0.000330
v 0.087695 1.350959 0.005204
v 0.089243 1.350959 0.000331
v 0.083211 1.350959 0.009350
v 0.076031 1.350959 0.012804
v 0.066395 1.350959 0.015601
v 0.054544 1.350959 0.017777
v 0.040718 1.350959 0.019369
v 0.025157 1.350959 0.020412
v 0.008100 1.350959 0.020941
v -0.010211 1.350959 0.020994
v -0.029537 1.350959 0.020605
v -0.049637 1.350959 0.019811
v -0.070271 1.350959 0.018647
v -0.091199 1.350959 0.017149
v -0.112182 1.350959 0.015354
v -0.132978 1.350959 0.013296
v -0.153347 1.350959 0.011012
v -0.173050 1.350959 0.008537
v -0.191846 1.350959 0.005908
v -0.209495 1.350959 0.003161
vn 0.000000 -1.000000 0.000000
vn 0.000000 1.000000 0.000000
vn 0.000000 1.000000 0.000100
vn 0.000000 1.000000 -0.000100
vn 0.000000 1.000000 -0.000300
vn 0.000000 1.000000 0.000200
vn 0.000000 1.000000 -0.000200
vn 0.000000 1.000000 0.000700
vn 0.000000 1.000000 0.000300
vn 0.000000 1.000000 0.000500
vn 0.000000 1.000000 -0.000700
vn 0.836500 0.084500 -0.541400
vn 0.948800 0.094900 -0.301300
vn 0.845200 0.085300 -0.527600
vn 0.948800 0.094900 0.301300
vn 0.845200 0.085300 0.527600
vn 0.836500 0.084500 0.541400
vn 0.567200 0.059200 0.821400
vn 0.555400 0.058100 0.829500
vn 0.361100 0.040400 0.931600
vn 0.353000 0.039700 0.934800
vn 0.232400 0.029300 0.972200
vn 0.227400 0.028900 0.973400
vn 0.149100 0.022600 0.988600
vn 0.145900 0.022300 0.989000
vn 0.091600 0.018400 0.995600
vn 0.089600 0.018200 0.995800
vn 0.049600 0.015700 0.998600
vn 0.048300 0.015600 0.998700
vn 0.017400 0.013900 0.999700
vn 0.016500 0.013900 0.999800
vn -0.008300 0.012800 0.999900
vn -0.008900 0.012800 0.999900
vn -0.029600 0.012100 0.999500
vn -0.029900 0.012100 0.999500
vn -0.047800 0.011800 0.998800
vn -0.047900 0.011800 0.998800
vn -0.063800 0.011700 0.997900
vn -0.078400 0.011800 0.996800
vn -0.078200 0.011800 0.996900
vn -0.091700 0.012100 0.995700
vn -0.092000 0.012100 0.995700
vn -0.104800 0.012500 0.994400
vn -0.105100 0.012500 0.994400
vn -0.117800 0.013100 0.993000
vn -0.118200 0.013100 0.992900
vn -0.131300 0.013900 0.991200
vn -0.131800 0.013900 0.991100
vn -0.145800 0.014900 0.989200
vn -0.146500 0.015000 0.989100
vn -0.162100 0.016300 0.986600
vn -0.163100 0.016400 0.986400
vn -0.171400 0.017100 0.985000
vn -0.171400 0.017100 -0.985000
vn -0.163100 0.016400 -0.986400
vn -0.162100 0.016300 -0.986600
vn -0.146500 0.015000 -0.989100
vn -0.145800 0.014900 -0.989200
vn -0.131800 0.013900 -0.991100
vn -0.131300 0.013900 -0.991200
vn -0.118200 0.013100 -0.992900
vn -0.117800 0.013100 -0.993000
vn -0.105100 0.012500 -0.994400
vn -0.104800 0.012500 -0.994400
vn -0.092000 0.012100 -0.995700
vn -0.091700 0.012100 -0.995700
vn -0.078400 0.011800 -0.996800
vn -0.078200 0.011800 -0.996900
vn -0.063800 0.011700 -0.997900
vn -0.047900 0.011800 -0.998800
vn -0.047800 0.011800 -0.998800
vn -0.029900 0.012100 -0.999500
vn -0.029600 0.012100 -0.999500
vn -0.008900 0.012800 -0.999900
vn -0.008300 0.012800 -0.999900
vn 0.016500 0.013900 -0.999800
vn 0.017400 0.013900 -0.999700
vn 0.048300 0.015600 -0.998700
vn 0.049600 0.015700 -0.998600
vn 0.089600 0.018200 -0.995800
vn 0.091600 0.018400 -0.995600
vn 0.145900 0.022300 -0.989000
vn 0.149100 0.022600 -0.988600
vn 0.227400 0.028900 -0.973400
vn 0.232400 0.029300 -0.972200
vn 0.353000 0.039700 -0.934800
vn 0.361100 0.040400 -0.931600
vn 0.555400 0.058100 -0.829500
vn 0.567200 0.059200 -0.821400
s off
f 1//1 2//1 3//1
f 2//1 1//1 4//1
f 2//1 4//1 5//1
f 5//1 4//1 6//1
f 5//1 6//1 7//1
f 7//1 6//1 8//1
f 7//1 8//1 9//1
f 9//1 8//1 10//1
f 9//1 10//1 11//1
f 11//1 10//1 12//1
f 11//1 12//1 13//1
f 13//1 12//1 14//1
f 13//1 14//1 15//1
f 15//1 14//1 16//1
f 15//1 16//1 17//1
f 17//1 16//1 18//1
f 17//1 18//1 19//1
f 19//1 18//1 20//1
f 19//1 20//1 21//1
f 21//1 20//1 22//1
f 21//1 22//1 23//1
f 23//1 22//1 24//1
f 23//1 24//1 25//1
f 25//1 24//1 26//1
f 25//1 26//1 27//1
f 27//1 26//1 28//1
f 27//1 28//1 29//1
f 29//1 28//1 30//1
f 29//1 30//1 31//1
f 31//1 30//1 32//1
f 31//1 32//1 33//1
f 33//1 32//1 34//1
f 33//1 34//1 35//1
f 35//1 34//1 36//1
f 35//1 36//1 37//1
f 37//1 36//1 38//1
f 37//1 38//1 39//1
f 39//1 38//1 40//1
f 125//2 126//2 127//2
f 126//2 125//2 128//2
f 126//2 128//2 129//2
f 126//3 129//3 130//3
f 126//4 130//4 131//4
f 126//2 131//2 132//2
f 126//2 132//2 133//2
f 126//2 133//2 134//2
f 126//2 134//2 135//2
f 126//4 135//4 136//4
f 126//3 136//3 137//3
f 126//2 137//2 138//2
f 126//2 138//2 139//2
f 126//4 139//4 140//4
f 126//3 140//3 141//3
f 126//5 141//5 142//5
f 126//6 142//6 143//6
f 126//7 143//7 144//7
f 126//8 144//8 145//8
f 146//2 147//2 148//2
f 147//2 146//2 149//2
f 149//2 146//2 150//2
f 150//4 146//4 151//4
f 151//3 146//3 152//3
f 152//2 146//2 153//2
f 153//2 146//2 154//2
f 154//2 146//2 155//2
f 155//2 146//2 156//2
f 156//6 146//6 157//6
f 157//4 146//4 158//4
f 158//2 146//2 159//2
f 159//2 146//2 160//2
f 160//2 146//2 161//2
f 161//2 146//2 162//2
f 162//9 146//9 163//9
f 163//2 146//2 164//2
f 164//10 146//10 165//10
f 165//11 146//11 166//11
s 1
f 41//12 42//13 43//14
f 42//13 41//12 44//13
f 45//15 46//16 47//15
f 46//16 45//15 48//17
f 48//17 49//18 46//16
f 49//18 48//17 50//19
f 50//19 51//20 49//18
f 51//20 50//19 52//21
f 52//21 53//22 51//20
f 53//22 52//21 54//23
f 54//23 55//24 53//22
f 55//24 54//23 56//25
f 56//25 57//26 55//24
f 57//26 56//25 58//27
f 58//27 59//28 57//26
f 59//28 58//27 60//29
f 60//29 61//30 59//28
f 61//30 60//29 62//31
f 62//31 63//32 61//30
f 63//32 62//31 64//33
f 64//33 65//34 63//32
f 65//34 64//33 66//35
f 66//35 67//36 65//34
f 67//36 66//35 68//37
f 68//37 69//38 67//36
f 69//38 68//37 70//38
f 70//38 71//39 69//38
f 71//39 70//38 72//40
f 71//39 73//41 74//42
f 73//41 71//39 72//40
f 74//42 75//43 76//44
f 75//43 74//42 73//41
f 76//44 77//45 78//46
f 77//45 76//44 75//43
f 78//46 79//47 80//48
f 79//47 78//46 77//45
f 80//48 81//49 82//50
f 81//49 80//48 79//47
f 82//50 83//51 84//52
f 83//51 82//50 81//49
f 84//52 85//53 86//53
f 85//53 84//52 83//51
f 87//54 88//55 89//54
f 88//55 87//54 90//56
f 90//56 91//57 88//55
f 91//57 90//56 92//58
f 92//58 93//59 91//57
f 93//59 92//58 94//60
f 94//60 95//61 93//59
f 95//61 94//60 96//62
f 96//62 97//63 95//61
f 97//63 96//62 98//64
f 98//64 99//65 97//63
f 99//65 98//64 100//66
f 100//66 101//67 99//65
f 101//67 100//66 102//68
f 101//67 103//69 104//69
f 103//69 101//67 102//68
f 104//69 105//70 106//71
f 105//70 104//69 103//69
f 106//71 107//72 108//73
f 107//72 106//71 105//70
f 108//73 109//74 110//75
f 109//74 108//73 107//72
f 110//75 111//76 112//77
f 111//76 110//75 109//74
f 112//77 113//78 114//79
f 113//78 112//77 111//76
f 114//79 115//80 116//81
f 115//80 114//79 113//78
f 116//81 117//82 118//83
f 117//82 116//81 115//80
f 118//83 119//84 120//85
f 119//84 118//83 117//82
f 120//85 121//86 122//87
f 121//86 120//85 119//84
f 122//87 123//88 124//89
f 123//88 122//87 121//86
f 124//89 41//12 43//14
f 41//12 124//89 123//88
