#Produced by Art of Illusion 2.8.1, Sun May 01 10:36:54 CEST 2011
g Propellor
v -0.96 0.16927 -1.30739
v -0.84421 -0.4874 -1.30739
v -0.3334 -0.91602 -1.30739
v 0.3334 -0.91602 -1.30739
v 0.84421 -0.4874 -1.30739
v 0.96 0.16927 -1.30739
v 0.6266 0.74675 -1.30739
v -0 0.97481 -1.30739
v -0.6266 0.74675 -1.30739
v -0 0 1.9942
v -0.84 0.14811 0.46085
v -0.73868 -0.42648 0.46085
v -0.29173 -0.80152 0.46085
v 0.29173 -0.80152 0.46085
v 0.73868 -0.42648 0.46085
v 0.84 0.14811 0.46085
v 0.54827 0.6534 0.46085
v -0 0.85296 0.46085
v -0.54827 0.6534 0.46085
v -9.23545 6.06878 -0.74269
v -10.04164 6.64818 -0.35484
v -10.77832 5.37223 -0.45256
v -9.87344 4.96374 -0.06471
v 10.77832 5.37223 -0.35484
v 9.87344 4.96374 -0.74269
v 9.23545 6.06878 -0.06471
v 10.04164 6.64818 -0.45256
v -0.73667 -12.02041 -0.35484
v -0.63799 -11.03252 -0.74269
v 0.63799 -11.03252 -0.06471
v 0.73667 -12.02041 -0.45256
v 0.3133 0.86078 -1.30739
v 0.7933 0.45801 -1.30739
v -0.64848 -7.59083 -0.7857
v -0.85277 -12.59693 -0.66185
v -0.48 0.57204 -1.30739
v -0.3133 0.86078 -1.30739
v -0.17015 -7.59083 -0.47499
v -0.10932 -12.59693 -0.63862
v -0.58881 -0.70171 -1.30739
v -0.9021 -0.15907 -1.30739
v 0.17015 -7.59083 -0.33241
v 0.58881 -0.70171 -1.30739
v -0 -0.91602 -1.30739
v 0.64848 -7.59083 -0.02169
v 0.48 0.57204 -1.30739
v 0.9021 -0.15907 -1.30739
v 6.24961 4.35701 -0.02169
v -0.0579 -0.15907 -1.30739
v 0.4221 0.2437 -1.30739
v 6.8072 3.39124 -0.62134
v 0.2554 -0.70171 -1.30739
v -0.6467 -0.37337 -1.30739
v 6.65893 3.64806 -0.47499
v 10.96392 6.20379 -0.63862
v -10.96392 6.20379 -0.16877
v -12.3544 7.13282 -0.4037
v -10.48288 7.03699 -0.66185
v 10.48288 7.03699 -0.14555
v 10.8546 6.39314 -0.16877
v 12.3544 7.13282 -0.4037
v 0.3133 0.73893 0.46085
v 0.6266 0.74675 -0.4037
v 0.3133 0.86078 -0.4037
v -0.23497 0.76744 0.46085
v -0 0.97481 -0.4037
v -0.3133 0.86078 -0.4037
v -0.79658 -0.09814 0.46085
v -0.96 0.16927 -0.4037
v -0.9021 -0.15907 -0.4037
v -0.54713 -0.58721 0.46085
v -0.84421 -0.4874 -0.4037
v -0.58881 -0.70171 -0.4037
v 0.85277 -12.59693 -0.14555
v 0.10932 -12.59693 -0.16877
v 0 -14.26563 -0.4037
v 0.48328 -0.64079 0.46085
v 0.3334 -0.91602 -0.4037
v 0.58881 -0.70171 -0.4037
v 0.7821 -0.18022 0.46085
v 0.84421 -0.4874 -0.4037
v 0.9021 -0.15907 -0.4037
v -0.54188 -7.59083 -0.82549
v -0.48 0.08464 1.2471
v -2.23221 1.07415 0.52314
v 2.04634 1.39607 0.52314
v 6.3405 4.19959 -0.18605
v 0.3133 0.37337 1.2471
v -0.4667 -7.59083 -0.62134
v -0 0.4874 1.2471
v 6.48877 3.94277 -0.33241
v -0.3133 0.37337 1.2471
v -0.3334 -0.91602 -0.4037
v 0.54188 -7.59083 0.01809
v -0.4221 -0.2437 1.2471
v 0.96 0.16927 -0.4037
v 6.30291 4.2647 0.01809
v -0.1667 -0.45801 1.2471
v 0.18586 -2.47022 0.52314
v 0.4667 -7.59083 -0.18605
v 0.1667 -0.45801 1.2471
v 6.84479 3.32613 -0.82549
v 0.4221 -0.2437 1.2471
v 6.89809 3.23381 -0.7857
v 11.33565 5.55994 -0.66185
v 0.48 0.08464 1.2471
v -6.30291 4.2647 -0.82549
v -6.48877 3.94277 -0.47499
v -10.8546 6.39314 -0.63862
v -0.7933 0.45801 -1.30739
v -6.3405 4.19959 -0.62134
v -6.24961 4.35701 -0.7857
v -0.6266 0.74675 -0.4037
v -6.84479 3.32613 0.01809
v -6.65893 3.64806 -0.33241
v -6.8072 3.39124 -0.18605
v -6.89809 3.23381 -0.02169
v -11.33565 5.55994 -0.14555
vn 0 0 -1
vn -0.4822 -0.54143 -0.68872
vn -0.98481 -0.17365 0
vn 0 0 -1
vn 0 0 -1
vn 0 0 -1
vn 0 0 -1
vn -0.98481 -0.17365 0
vn -0.64279 -0.76604 0
vn -0.64279 -0.76604 0
vn -0.69602 -0.12328 -0.70736
vn 0 0 -1
vn 0 0 -1
vn 0 0 -1
vn 0.64279 -0.76604 0
vn 0 0 -1
vn 0.70999 -0.14689 -0.68872
vn 0.64279 -0.76604 0
vn 0.98481 -0.17365 0
vn 0 0 -1
vn 0 0 -1
vn 0 0 -1
vn 0 0 -1
vn 0 0 -1
vn 0 0 -1
vn 0.98481 -0.17365 0
vn 0.45478 -0.54113 -0.70736
vn 0 0 -1
vn -0.22779 0.68831 -0.68872
vn 0.34202 0.93969 0
vn 0.34202 0.93969 0
vn -0.34202 0.93969 0
vn 0 0 -1
vn 0 0 -1
vn 0 0 -1
vn 0 0 -1
vn -0.34202 0.93969 0
vn 0.24125 0.66442 -0.70736
vn 0 0 -1
vn -0.73833 0.42627 0.52265
vn -0.29159 0.80113 0.52265
vn 0.29159 0.80113 0.52265
vn 0.73833 0.42627 0.52265
vn 0.83959 -0.14804 0.52265
vn 0.54801 -0.65309 0.52265
vn 0 -0.85254 0.52265
vn -0.54801 -0.65309 0.52265
vn -0.83959 -0.14804 0.52265
vn -0.54654 -0.82826 0.12362
vn -0.95098 -0.16768 0.25986
vn -0.62071 -0.73973 0.25986
vn -0.95098 -0.16768 0.25986
vn -0.62071 -0.73973 0.25986
vn -0.95473 -0.20227 0.21812
vn 0.62071 -0.73973 0.25986
vn 0.99056 -0.05918 0.12362
vn 0.95098 -0.16768 0.25986
vn 0.62071 -0.73973 0.25986
vn 0.95098 -0.16768 0.25986
vn 0.65254 -0.72568 0.21812
vn 0.33027 0.90741 0.25986
vn -0.44403 0.88744 0.12362
vn -0.33027 0.90741 0.25986
vn 0.33027 0.90741 0.25986
vn 0.30219 0.92796 0.21812
vn -0.33027 0.90741 0.25986
vn -0.0106 -0.02214 -0.9997
vn 0.33606 0.57073 0.74922
vn -0.32624 -0.5764 -0.74922
vn 0.01387 0.02025 0.9997
vn 0.32624 -0.5764 0.74922
vn -0.01387 0.02025 -0.9997
vn 0.0106 -0.02214 0.9997
vn -0.33606 0.57073 -0.74922
vn -0.6623 0.00567 0.74922
vn 0.02447 0.00189 -0.9997
vn -0.02447 0.00189 0.9997
vn 0.6623 0.00567 -0.74922
vn 0.34202 0.93969 0
vn 0 0 -1
vn 0 0 -1
vn 0.08077 0.03772 -0.99602
vn -0.97938 0.08434 -0.18359
vn -0.86071 -0.32313 -0.3934
vn 0 0 -1
vn 0 0 -1
vn -0.34202 0.93969 0
vn 0 0 -1
vn 0.56634 0.01091 -0.8241
vn 0.15793 -0.07359 -0.9847
vn -0.64279 -0.76604 0
vn 0 0 -1
vn -0.98481 -0.17365 0
vn 0 0 -1
vn -0.5669 0.01168 0.82371
vn 0.64279 -0.76604 0
vn 0 0 -1
vn 0 0 -1
vn -0.00772 -0.0888 -0.99602
vn 0.97878 0.09362 0.18227
vn 0 0 -1
vn 0 0 -1
vn 0.98481 -0.17365 0
vn 0 0 -1
vn -0.57047 0.80084 0.18227
vn 0 0 -1
vn 0 0 -1
vn 0 0 -1
vn 0 0 -1
vn 0.19532 -0.51339 0.83563
vn 0 0 -1
vn 0 0 -1
vn 0 0 -1
vn 0 0 -1
vn -0.29261 0.48501 -0.8241
vn -0.01523 0.17356 -0.9847
vn 0.01523 0.17356 0.9847
vn -0.86603 0.5 0
vn 0.15052 0.90696 -0.3934
vn -0.15052 0.90696 0.3934
vn 0.1427 -0.09997 0.9847
vn 0.86603 0.5 0
vn 0.32947 0.9052 0.26846
vn 0.3413 0.93772 0.06477
vn -0.4102 0.91189 0.01352
vn 0.34128 0.93766 0.06579
vn -0.32947 0.9052 0.26846
vn 0.3413 0.93772 0.06477
vn -0.3413 0.93772 0.06477
vn -0.34128 0.93766 0.06579
vn -0.94866 -0.16727 0.26846
vn -0.98274 -0.17328 0.06477
vn -0.58462 -0.81119 0.01352
vn -0.98267 -0.17327 0.06579
vn -0.61919 -0.73792 0.26846
vn -0.98274 -0.17328 0.06477
vn -0.64144 -0.76444 0.06477
vn -0.64139 -0.76438 0.06579
vn 0.86071 -0.32313 0.3934
vn -0.15793 -0.07359 0.9847
vn 0 -1 -0
vn 0.61919 -0.73792 0.26846
vn 0.64144 -0.76444 0.06477
vn 0.99482 -0.1007 0.01352
vn 0.64139 -0.76438 0.06579
vn 0.94866 -0.16727 0.26846
vn 0.64144 -0.76444 0.06477
vn 0.98274 -0.17328 0.06477
vn 0.98267 -0.17327 0.06579
vn 0.19839 -0.03544 -0.97948
vn -0.63178 0.05932 0.77287
vn -0.87645 -0.15454 0.45601
vn -0.22065 -0.07869 0.97217
vn 0.04217 0.23044 0.97217
vn -0.35044 0.42675 -0.83371
vn 0.36726 0.51748 0.77287
vn 0.30439 0.8363 0.45601
vn -0.54227 0.08754 0.83563
vn 0.30439 0.8363 0.45601
vn -0.30439 0.8363 0.45601
vn 0.27333 -0.49679 0.82371
vn -0.30439 0.8363 0.45601
vn -0.40009 0.53582 0.74352
vn -0.99375 -0.10032 0.04903
vn -0.64144 -0.76444 0.06477
vn -0.19786 -0.03399 0.97964
vn -0.87645 -0.15454 0.45601
vn -0.57206 -0.68176 0.45601
vn 0.58375 -0.81045 0.04903
vn 0.98274 -0.17328 0.06477
vn 0.12837 -0.15435 0.97964
vn -0.57206 -0.68176 0.45601
vn -0.26399 -0.6144 0.74352
vn 0.17848 -0.15174 0.97217
vn 0.5448 0.09011 -0.83371
vn 0.26452 -0.5768 0.77287
vn 0.57206 -0.68176 0.45601
vn -0.0685 0.18953 -0.97948
vn 0.57206 -0.68176 0.45601
vn 0.87645 -0.15454 0.45601
vn 0.41665 -0.89034 -0.18359
vn 0.71019 -0.58383 -0.3934
vn 0.87645 -0.15454 0.45601
vn 0.66408 0.07858 0.74352
vn -0.12989 -0.15409 -0.97948
vn -0.27372 -0.49591 -0.8241
vn -0.1427 -0.09997 -0.9847
vn -0.07305 0.05109 -0.99602
vn 0 0 -1
vn 0.34695 0.42585 0.83563
vn 0.56273 0.806 -0.18359
vn 0.40999 0.91077 0.04903
vn -0.3413 0.93772 0.06477
vn 0.06949 0.18835 0.97964
vn 0.29357 0.4851 0.82371
vn -0.19436 -0.51686 -0.83371
vn -0.40832 -0.89446 0.18227
vn -0.71019 -0.58383 0.3934
f 6//24 46//101 33//81
f 28//75 34//83 35//84
f 8//33 36//85 37//88
f 29//76 38//89 39//90
f 1//4 53//113 41//94
f 30//77 42//95 75//140
f 3//12 52//112 44//98
f 31//78 45//100 74//139
f 5//20 50//108 47//104
f 27//74 48//105 59//120
f 5//21 49//106 50//109
f 6//27 33//82 51//110
f 5//22 52//111 49//107
f 25//72 54//115 55//116
f 21//68 57//118 56//117
f 20//67 109//187 58//119
f 24//71 61//122 60//121
f 25//72 55//116 105//182
f 7//30 64//126 63//124
f 8//31 66//128 32//79
f 8//32 67//130 66//129
f 9//37 113//193 37//87
f 1//3 70//134 69//132
f 2//8 72//136 41//93
f 2//9 73//138 72//137
f 3//10 93//165 40//91
f 28//75 76//141 75//140
f 29//76 39//90 35//84
f 4//15 79//145 78//143
f 5//18 81//147 43//96
f 5//19 82//149 81//148
f 6//26 96//170 47//103
f 4//17 78//144 83//150
f 11//49 84//151 85//153
f 17//62 86//154 87//155
f 17//62 88//156 86//154
f 3//11 44//99 89//158
f 18//64 90//159 62//123
f 26//73 91//161 60//121
f 19//66 92//162 65//127
f 13//54 93//164 94//166
f 12//52 95//167 68//131
f 16//60 96//169 97//171
f 13//53 98//172 71//135
f 14//56 99//174 100//175
f 14//56 101//176 99//174
f 7//29 63//125 102//178
f 15//58 103//179 77//142
f 24//71 104//181 105//182
f 16//59 106//183 80//146
f 1//2 69//133 107//185
f 20//67 108//186 109//187
f 9//38 110//188 111//190
f 21//68 112//191 58//119
f 19//65 113//192 114//194
f 23//70 115//195 56//117
f 11//49 85//153 116//196
f 22//69 117//197 118//198
f 8//36 32//80 46//101
f 7//28 33//81 32//80
f 46//101 32//80 33//81
f 4//17 83//150 34//83
f 29//76 35//84 83//150
f 34//83 83//150 35//84
f 1//1 110//189 36//85
f 9//39 37//88 110//189
f 36//85 110//189 37//88
f 14//56 100//175 38//89
f 31//78 39//90 100//175
f 38//89 100//175 39//90
f 3//14 40//92 53//113
f 2//7 41//94 40//92
f 53//113 40//92 41//94
f 3//11 89//158 42//95
f 28//75 75//140 89//158
f 42//95 89//158 75//140
f 5//23 43//97 52//112
f 4//16 44//98 43//97
f 52//112 43//97 44//98
f 13//54 94//166 45//100
f 30//77 74//139 94//166
f 45//100 94//166 74//139
f 8//35 46//102 50//108
f 6//25 47//104 46//102
f 50//108 46//102 47//104
f 16//60 97//171 48//105
f 26//73 59//120 97//171
f 48//105 97//171 59//120
f 1//6 36//86 49//106
f 8//34 50//109 36//86
f 49//106 36//86 50//109
f 7//29 104//181 33//82
f 24//71 51//110 104//181
f 33//82 104//181 51//110
f 3//13 53//114 52//111
f 1//5 49//107 53//114
f 52//111 53//114 49//107
f 17//62 87//155 54//115
f 27//74 55//116 87//155
f 54//115 87//155 55//116
f 22//69 118//198 57//118
f 23//70 56//117 118//198
f 57//118 118//198 56//117
f 22//69 57//118 109//187
f 21//68 58//119 57//118
f 109//187 57//118 58//119
f 27//74 59//120 61//122
f 26//73 60//121 59//120
f 61//122 59//120 60//121
f 27//74 61//122 55//116
f 24//71 105//182 61//122
f 55//116 61//122 105//182
f 18//64 62//123 64//126
f 17//61 63//124 62//123
f 64//126 62//123 63//124
f 18//64 64//126 66//128
f 7//30 32//79 64//126
f 66//128 64//126 32//79
f 19//66 65//127 67//130
f 18//63 66//129 65//127
f 67//130 65//127 66//129
f 19//66 67//130 113//193
f 8//32 37//87 67//130
f 113//193 67//130 37//87
f 12//52 68//131 70//134
f 11//50 69//132 68//131
f 70//134 68//131 69//132
f 12//52 70//134 72//136
f 1//3 41//93 70//134
f 72//136 70//134 41//93
f 13//53 71//135 73//138
f 12//51 72//137 71//135
f 73//138 71//135 72//137
f 13//53 73//138 93//165
f 2//9 40//91 73//138
f 93//165 73//138 40//91
f 31//78 74//139 76//141
f 30//77 75//140 74//139
f 76//141 74//139 75//140
f 31//78 76//141 39//90
f 28//75 35//84 76//141
f 39//90 76//141 35//84
f 15//58 77//142 79//145
f 14//55 78//143 77//142
f 79//145 77//142 78//143
f 15//58 79//145 81//147
f 4//15 43//96 79//145
f 81//147 79//145 43//96
f 16//59 80//146 82//149
f 15//57 81//148 80//146
f 82//149 80//146 81//148
f 16//59 82//149 96//170
f 5//19 47//103 82//149
f 96//170 82//149 47//103
f 14//56 38//89 78//144
f 29//76 83//150 38//89
f 78//144 38//89 83//150
f 10//40 92//163 84//151
f 19//65 85//153 92//163
f 84//151 92//163 85//153
f 16//60 48//105 86//154
f 27//74 87//155 48//105
f 86//154 48//105 87//155
f 10//43 106//184 88//156
f 16//60 86//154 106//184
f 88//156 106//184 86//154
f 4//17 34//83 44//99
f 28//75 89//158 34//83
f 44//99 34//83 89//158
f 10//42 88//157 90//159
f 17//61 62//123 88//157
f 90//159 88//157 62//123
f 6//27 51//110 91//161
f 24//71 60//121 51//110
f 91//161 51//110 60//121
f 10//41 90//160 92//162
f 18//63 65//127 90//160
f 92//162 90//160 65//127
f 3//11 42//95 93//164
f 30//77 94//166 42//95
f 93//164 42//95 94//166
f 10//48 84//152 95//167
f 11//50 68//131 84//152
f 95//167 84//152 68//131
f 6//27 91//161 96//169
f 26//73 97//171 91//161
f 96//169 91//161 97//171
f 10//47 95//168 98//172
f 12//51 71//135 95//168
f 98//172 95//168 71//135
f 13//54 45//100 99//174
f 31//78 100//175 45//100
f 99//174 45//100 100//175
f 10//46 98//173 101//176
f 13//54 99//174 98//173
f 101//176 98//173 99//174
f 17//62 54//115 63//125
f 25//72 102//178 54//115
f 63//125 54//115 102//178
f 10//45 101//177 103//179
f 14//55 77//142 101//177
f 103//179 101//177 77//142
f 7//29 102//178 104//181
f 25//72 105//182 102//178
f 104//181 102//178 105//182
f 10//44 103//180 106//183
f 15//57 80//146 103//180
f 106//183 103//180 80//146
f 11//49 108//186 69//133
f 20//67 107//185 108//186
f 69//133 108//186 107//185
f 11//49 116//196 108//186
f 22//69 109//187 116//196
f 108//186 116//196 109//187
f 1//2 112//191 110//188
f 21//68 111//190 112//191
f 110//188 112//191 111//190
f 1//2 107//185 112//191
f 20//67 58//119 107//185
f 112//191 107//185 58//119
f 9//38 115//195 113//192
f 23//70 114//194 115//195
f 113//192 115//195 114//194
f 9//38 111//190 115//195
f 21//68 56//117 111//190
f 115//195 111//190 56//117
f 19//65 117//197 85//153
f 22//69 116//196 117//197
f 85//153 117//197 116//196
f 19//65 114//194 117//197
f 23//70 118//198 114//194
f 117//197 114//194 118//198
